
      <svg data-logo="logo" xmlns="http://www.w3.org/2000/svg" viewBox="0 0 166 42">
        <g id="logogram" transform="translate(0, 1) rotate(0) "><path d="M21.3474 0.349945L46.7544 25.7266V39.3499H34.8978V30.624L16.4444 12.1924H12.611V39.3499H0.754395V0.349945H21.3474ZM34.8978 13.8842V0.349945H46.7544V13.8842H34.8978Z" fill="#71717A"/></g>
        <g id="logotype" transform="translate(53, 11)"><path fill="#71717A" d="M23.25 2.45L23.25 20L18.98 20L11.82 9.17L11.82 20L7.55 20L7.55 2.45L11.82 2.45L18.98 13.32L18.98 2.45L23.25 2.45ZM32.70 20.20Q30.65 20.20 29.01 19.32Q27.38 18.45 26.44 16.82Q25.50 15.20 25.50 13.02L25.50 13.02Q25.50 10.88 26.45 9.24Q27.40 7.60 29.05 6.72Q30.70 5.85 32.75 5.85L32.75 5.85Q34.80 5.85 36.45 6.72Q38.10 7.60 39.05 9.24Q40 10.88 40 13.02L40 13.02Q40 15.18 39.04 16.81Q38.08 18.45 36.41 19.32Q34.75 20.20 32.70 20.20L32.70 20.20ZM32.70 16.50Q33.92 16.50 34.79 15.60Q35.65 14.70 35.65 13.02L35.65 13.02Q35.65 11.35 34.81 10.45Q33.98 9.55 32.75 9.55L32.75 9.55Q31.50 9.55 30.68 10.44Q29.85 11.32 29.85 13.02L29.85 13.02Q29.85 14.70 30.66 15.60Q31.48 16.50 32.70 16.50L32.70 16.50ZM44.43 4.60Q43.30 4.60 42.59 3.94Q41.88 3.27 41.88 2.30L41.88 2.30Q41.88 1.30 42.59 0.64Q43.30-0.03 44.43-0.03L44.43-0.03Q45.53-0.03 46.24 0.64Q46.95 1.30 46.95 2.30L46.95 2.30Q46.95 3.27 46.24 3.94Q45.53 4.60 44.43 4.60L44.43 4.60ZM42.27 6.05L46.55 6.05L46.55 20L42.27 20L42.27 6.05ZM53.93 8.38Q54.68 7.22 55.80 6.56Q56.93 5.90 58.30 5.90L58.30 5.90L58.30 10.42L57.13 10.42Q55.53 10.42 54.73 11.11Q53.93 11.80 53.93 13.52L53.93 13.52L53.93 20L49.65 20L49.65 6.05L53.93 6.05L53.93 8.38ZM59.50 13Q59.50 10.85 60.31 9.22Q61.13 7.60 62.53 6.72Q63.93 5.85 65.65 5.85L65.65 5.85Q67.03 5.85 68.16 6.42Q69.30 7 69.95 7.97L69.95 7.97L69.95 1.50L74.23 1.50L74.23 20L69.95 20L69.95 18Q69.35 19 68.24 19.60Q67.13 20.20 65.65 20.20L65.65 20.20Q63.93 20.20 62.53 19.31Q61.13 18.43 60.31 16.79Q59.50 15.15 59.50 13L59.50 13ZM69.95 13.02Q69.95 11.42 69.06 10.50Q68.18 9.57 66.90 9.57L66.90 9.57Q65.63 9.57 64.74 10.49Q63.85 11.40 63.85 13L63.85 13Q63.85 14.60 64.74 15.54Q65.63 16.48 66.90 16.48L66.90 16.48Q68.18 16.48 69.06 15.55Q69.95 14.63 69.95 13.02L69.95 13.02ZM81.60 8.38Q82.35 7.22 83.48 6.56Q84.60 5.90 85.98 5.90L85.98 5.90L85.98 10.42L84.80 10.42Q83.20 10.42 82.40 11.11Q81.60 11.80 81.60 13.52L81.60 13.52L81.60 20L77.33 20L77.33 6.05L81.60 6.05L81.60 8.38ZM90.18 4.60Q89.05 4.60 88.34 3.94Q87.63 3.27 87.63 2.30L87.63 2.30Q87.63 1.30 88.34 0.64Q89.05-0.03 90.18-0.03L90.18-0.03Q91.28-0.03 91.99 0.64Q92.70 1.30 92.70 2.30L92.70 2.30Q92.70 3.27 91.99 3.94Q91.28 4.60 90.18 4.60L90.18 4.60ZM88.03 6.05L92.30 6.05L92.30 20L88.03 20L88.03 6.05ZM102.40 6.05L102.40 9.60L100.10 9.60L100.10 20L95.83 20L95.83 9.60L94.28 9.60L94.28 6.05L95.83 6.05L95.83 5.65Q95.83 3.07 97.30 1.74Q98.78 0.40 101.63 0.40L101.63 0.40Q102.10 0.40 102.33 0.42L102.33 0.42L102.33 4.05Q101.10 3.97 100.60 4.40Q100.10 4.82 100.10 5.92L100.10 5.92L100.10 6.05L102.40 6.05ZM110.65 16.38L112.18 16.38L112.18 20L110.00 20Q107.68 20 106.38 18.86Q105.08 17.73 105.08 15.15L105.08 15.15L105.08 9.60L103.38 9.60L103.38 6.05L105.08 6.05L105.08 2.65L109.35 2.65L109.35 6.05L112.15 6.05L112.15 9.60L109.35 9.60L109.35 15.20Q109.35 15.82 109.65 16.10Q109.95 16.38 110.65 16.38L110.65 16.38Z"/></g>
        
      </svg>
    