
      <svg data-logo="logo" xmlns="http://www.w3.org/2000/svg" viewBox="0 0 171 43">
        <g id="logogram" transform="translate(0, 1) rotate(0) "><path d="M37.8473 40.43C44.2801 40.2989 49.4526 35.0373 49.4526 28.5688C49.4526 25.4231 48.2038 22.4061 45.9809 20.1818L26.2421 0.429993V12.707C26.2421 14.7603 27.0573 16.7295 28.5082 18.1814L33.1321 22.8084L33.1448 22.8207L40.8979 30.5789C41.1497 30.8309 41.1497 31.2394 40.8979 31.4913C40.6461 31.7433 40.2379 31.7433 39.9861 31.4913L37.3136 28.8171H12.5917L9.91919 31.4913C9.6674 31.7433 9.25918 31.7433 9.00739 31.4913C8.75561 31.2394 8.75561 30.8309 9.00739 30.5789L16.7605 22.8207L16.7732 22.8084L21.3971 18.1814C22.848 16.7295 23.6631 14.7603 23.6631 12.707V0.429993L3.92439 20.1818C1.70146 22.4061 0.452637 25.4231 0.452637 28.5688C0.452637 35.0373 5.62516 40.2989 12.058 40.43H37.8473Z" fill="#71717A"/></g>
        <g id="logotype" transform="translate(56, 8)"><path fill="#71717A" d="M11.53 23L7.72 23L7.72 4.77L13.85 4.77L16.30 12.92L17.38 17.52L17.55 17.52L18.60 12.92L21.02 4.77L27.15 4.77L27.15 23L23.38 23L23.38 14.53L23.48 8.42L23.30 8.42L21.73 14.10L19.10 23L15.83 23L13.20 14.07L11.63 8.42L11.43 8.42L11.53 14.53L11.53 23ZM35.23 23.25L35.23 23.25Q33.13 23.25 31.66 22.40Q30.20 21.55 29.43 20Q28.65 18.45 28.65 16.40L28.65 16.40Q28.65 14.22 29.44 12.65Q30.23 11.07 31.66 10.21Q33.10 9.35 35.08 9.35L35.08 9.35Q37.38 9.35 38.84 10.35Q40.30 11.35 40.95 13.10Q41.60 14.85 41.38 17.10L41.38 17.10L32.25 17.10Q32.25 18.20 32.61 18.96Q32.98 19.73 33.65 20.10Q34.33 20.48 35.23 20.48L35.23 20.48Q36.27 20.48 36.92 20.05Q37.58 19.63 37.80 18.93L37.80 18.93L41.27 18.93Q41.08 20.25 40.25 21.21Q39.42 22.18 38.14 22.71Q36.85 23.25 35.23 23.25ZM32.25 15.18L32.25 15.18L31.93 14.82L38.13 14.82L37.77 15.18Q37.83 14.13 37.49 13.46Q37.15 12.80 36.54 12.45Q35.92 12.10 35.08 12.10L35.08 12.10Q34.23 12.10 33.59 12.46Q32.95 12.82 32.61 13.51Q32.27 14.20 32.25 15.18ZM50.43 23L47.43 23Q45.70 23 44.88 22.19Q44.05 21.38 44.05 19.60L44.05 19.60L44.05 12.55L41.65 12.55L41.65 9.60L44.05 9.60L44.05 5.95L47.73 5.60L47.73 9.60L50.43 9.60L50.43 12.55L47.73 12.55L47.73 18.93Q47.73 19.55 48.03 19.77Q48.33 20 48.88 20L48.88 20L50.43 20L50.43 23ZM56.65 23.23L56.65 23.23Q55.43 23.23 54.43 22.76Q53.43 22.30 52.70 21.41Q51.98 20.52 51.59 19.23Q51.20 17.93 51.20 16.30L51.20 16.30Q51.20 14.10 51.89 12.54Q52.58 10.97 53.80 10.16Q55.03 9.35 56.65 9.35L56.65 9.35Q57.68 9.35 58.50 9.66Q59.33 9.97 59.93 10.54Q60.53 11.10 60.80 11.85L60.80 11.85L61.00 11.85L61.15 9.60L64.63 9.60L64.63 23L61.15 23L61.00 20.73L60.80 20.73Q60.40 21.85 59.29 22.54Q58.18 23.23 56.65 23.23ZM57.98 20.25L57.98 20.25Q58.98 20.25 59.64 19.82Q60.30 19.40 60.63 18.65Q60.95 17.90 60.95 16.95L60.95 16.95L60.95 15.63Q60.95 14.65 60.61 13.91Q60.28 13.17 59.61 12.75Q58.95 12.32 58.08 12.32L58.08 12.32Q57.03 12.32 56.34 12.80Q55.65 13.27 55.30 14.16Q54.95 15.05 54.95 16.30L54.95 16.30Q54.95 17.50 55.28 18.40Q55.60 19.30 56.28 19.77Q56.95 20.25 57.98 20.25ZM70.45 27.18L66.78 27.18L66.78 9.60L70.28 9.60L70.40 11.88L70.60 11.88Q71.03 10.75 72.14 10.05Q73.25 9.35 74.75 9.35L74.75 9.35Q76 9.35 77 9.82Q78 10.30 78.73 11.19Q79.45 12.07 79.84 13.36Q80.23 14.65 80.23 16.30L80.23 16.30Q80.23 18.48 79.54 20.04Q78.85 21.60 77.63 22.43Q76.40 23.25 74.75 23.25L74.75 23.25Q73.75 23.25 72.91 22.94Q72.08 22.63 71.48 22.05Q70.88 21.48 70.60 20.75L70.60 20.75L70.45 20.75L70.45 27.18ZM73.35 20.27L73.35 20.27Q74.38 20.27 75.08 19.79Q75.78 19.30 76.11 18.40Q76.45 17.50 76.45 16.30L76.45 16.30Q76.45 15.07 76.13 14.19Q75.80 13.30 75.13 12.81Q74.45 12.32 73.42 12.32L73.42 12.32Q72.45 12.32 71.78 12.76Q71.10 13.20 70.78 13.95Q70.45 14.70 70.45 15.65L70.45 15.65L70.45 16.98Q70.45 17.95 70.80 18.69Q71.15 19.43 71.80 19.85Q72.45 20.27 73.35 20.27ZM85.35 23L81.68 23L81.68 9.60L85.35 9.60L85.35 23ZM83.50 8.02L83.50 8.02Q82.65 8.02 82.10 7.57Q81.55 7.13 81.55 6.32L81.55 6.32Q81.55 5.50 82.10 5.05Q82.65 4.60 83.50 4.60L83.50 4.60Q84.38 4.60 84.93 5.05Q85.48 5.50 85.48 6.32L85.48 6.32Q85.48 7.13 84.93 7.57Q84.38 8.02 83.50 8.02ZM91.18 27.18L87.50 27.18L87.50 9.60L91.00 9.60L91.13 11.88L91.33 11.88Q91.75 10.75 92.86 10.05Q93.98 9.35 95.48 9.35L95.48 9.35Q96.73 9.35 97.73 9.82Q98.73 10.30 99.45 11.19Q100.18 12.07 100.56 13.36Q100.95 14.65 100.95 16.30L100.95 16.30Q100.95 18.48 100.26 20.04Q99.58 21.60 98.35 22.43Q97.13 23.25 95.48 23.25L95.48 23.25Q94.48 23.25 93.64 22.94Q92.80 22.63 92.20 22.05Q91.60 21.48 91.33 20.75L91.33 20.75L91.18 20.75L91.18 27.18ZM94.08 20.27L94.08 20.27Q95.10 20.27 95.80 19.79Q96.50 19.30 96.84 18.40Q97.18 17.50 97.18 16.30L97.18 16.30Q97.18 15.07 96.85 14.19Q96.53 13.30 95.85 12.81Q95.18 12.32 94.15 12.32L94.15 12.32Q93.18 12.32 92.50 12.76Q91.83 13.20 91.50 13.95Q91.18 14.70 91.18 15.65L91.18 15.65L91.18 16.98Q91.18 17.95 91.53 18.69Q91.88 19.43 92.53 19.85Q93.18 20.27 94.08 20.27ZM108.18 23.25L108.18 23.25Q106.08 23.25 104.61 22.40Q103.15 21.55 102.38 20Q101.60 18.45 101.60 16.40L101.60 16.40Q101.60 14.22 102.39 12.65Q103.18 11.07 104.61 10.21Q106.05 9.35 108.03 9.35L108.03 9.35Q110.33 9.35 111.79 10.35Q113.25 11.35 113.90 13.10Q114.55 14.85 114.33 17.10L114.33 17.10L105.20 17.10Q105.20 18.20 105.56 18.96Q105.93 19.73 106.60 20.10Q107.28 20.48 108.18 20.48L108.18 20.48Q109.23 20.48 109.88 20.05Q110.53 19.63 110.75 18.93L110.75 18.93L114.23 18.93Q114.03 20.25 113.20 21.21Q112.38 22.18 111.09 22.71Q109.80 23.25 108.18 23.25ZM105.20 15.18L105.20 15.18L104.88 14.82L111.08 14.82L110.73 15.18Q110.78 14.13 110.44 13.46Q110.10 12.80 109.49 12.45Q108.88 12.10 108.03 12.10L108.03 12.10Q107.18 12.10 106.54 12.46Q105.90 12.82 105.56 13.51Q105.23 14.20 105.20 15.18Z"/></g>
        
      </svg>
    