
      <svg data-logo="logo" xmlns="http://www.w3.org/2000/svg" viewBox="0 0 155 42">
        <g id="logogram" transform="translate(0, 1) rotate(0) "><path d="M15 0L20.4545 5.33333L0 25.3333V14.6667L15 0Z" fill="#71717A"/><path d="M2.90827 28.177L15 40L30 25.3334V14.6667L20.4545 5.33337L0 25.3334L0.0041688 25.3375L20.4545 5.33337V20.6667L11.25 29.6667V20.1324L2.90827 28.177Z" fill="#71717A"/></g>
        <g id="logotype" transform="translate(36, 8)"><path fill="#71717A" d="M11.65 22L7.85 22L7.85 4.25L12.05 4.25L19.10 16.50L19.10 4.25L22.90 4.25L22.90 22L18.65 22L11.65 10.17L11.65 22ZM29.05 22L25.30 22L25.30 8.60L29.05 8.60L29.05 22ZM29.10 6.95L25.22 6.95L25.22 3.95L29.10 3.95L29.10 6.95ZM35.50 22L31.75 22L31.75 8.60L35.13 8.60L35.25 11.82L34.90 11.67Q35.17 10.60 35.74 9.85Q36.30 9.10 37.10 8.70Q37.90 8.30 38.85 8.30L38.85 8.30Q40.52 8.30 41.56 9.27Q42.60 10.25 42.90 11.90L42.90 11.90L42.42 11.92Q42.65 10.75 43.21 9.94Q43.77 9.13 44.60 8.71Q45.42 8.30 46.45 8.30L46.45 8.30Q47.85 8.30 48.85 8.88Q49.85 9.45 50.40 10.59Q50.95 11.72 50.95 13.38L50.95 13.38L50.95 22L47.20 22L47.20 14.43Q47.20 12.85 46.72 12.06Q46.25 11.27 45.17 11.27L45.17 11.27Q44.50 11.27 44.02 11.65Q43.55 12.02 43.29 12.74Q43.02 13.45 43.02 14.47L43.02 14.47L43.02 22L39.65 22L39.65 14.47Q39.65 12.92 39.20 12.10Q38.75 11.27 37.65 11.27L37.65 11.27Q36.97 11.27 36.49 11.65Q36 12.02 35.75 12.75Q35.50 13.47 35.50 14.47L35.50 14.47L35.50 22ZM59.25 22.30L59.25 22.30Q57.20 22.30 55.67 21.44Q54.15 20.57 53.30 19Q52.45 17.43 52.45 15.30L52.45 15.30Q52.45 13.17 53.30 11.61Q54.15 10.05 55.67 9.17Q57.20 8.30 59.25 8.30L59.25 8.30Q61.30 8.30 62.82 9.17Q64.35 10.05 65.20 11.61Q66.05 13.17 66.05 15.30L66.05 15.30Q66.05 17.43 65.20 19Q64.35 20.57 62.82 21.44Q61.30 22.30 59.25 22.30ZM59.25 19.43L59.25 19.43Q60.65 19.43 61.42 18.34Q62.20 17.25 62.20 15.30L62.20 15.30Q62.20 13.35 61.42 12.26Q60.65 11.17 59.25 11.17L59.25 11.17Q57.85 11.17 57.07 12.26Q56.30 13.35 56.30 15.30L56.30 15.30Q56.30 17.25 57.07 18.34Q57.85 19.43 59.25 19.43ZM71.38 25.75L67.63 25.75L67.63 8.60L71.22 8.60L71.30 11.42L71 11.30Q71.50 9.85 72.63 9.07Q73.75 8.30 75.25 8.30L75.25 8.30Q77.13 8.30 78.38 9.22Q79.63 10.15 80.26 11.74Q80.90 13.32 80.90 15.30L80.90 15.30Q80.90 17.25 80.26 18.85Q79.63 20.45 78.36 21.38Q77.10 22.30 75.22 22.30L75.22 22.30Q74.25 22.30 73.40 21.94Q72.55 21.57 71.94 20.93Q71.32 20.27 71.05 19.38L71.05 19.38L71.38 19.18L71.38 25.75ZM74.20 19.43L74.20 19.43Q75.52 19.43 76.29 18.32Q77.05 17.23 77.05 15.30L77.05 15.30Q77.05 13.38 76.29 12.27Q75.52 11.17 74.20 11.17L74.20 11.17Q73.32 11.17 72.69 11.64Q72.05 12.10 71.71 13.03Q71.38 13.95 71.38 15.30L71.38 15.30Q71.38 16.65 71.71 17.57Q72.05 18.50 72.69 18.96Q73.32 19.43 74.20 19.43ZM86.60 22.30L86.60 22.30Q84.52 22.30 83.21 21.34Q81.90 20.38 81.90 18.65L81.90 18.65Q81.90 16.88 83.01 15.91Q84.13 14.95 86.30 14.50L86.30 14.50L90.63 13.65Q90.63 12.35 90.04 11.69Q89.45 11.02 88.35 11.02L88.35 11.02Q87.27 11.02 86.67 11.51Q86.07 12 85.90 12.95L85.90 12.95L82.13 12.78Q82.50 10.57 84.11 9.44Q85.72 8.30 88.35 8.30L88.35 8.30Q91.35 8.30 92.86 9.72Q94.38 11.15 94.38 13.90L94.38 13.90L94.38 18.48Q94.38 19.05 94.56 19.24Q94.75 19.43 95.13 19.43L95.13 19.43L95.50 19.43L95.50 22Q95.32 22.05 94.94 22.10Q94.55 22.15 94.17 22.15L94.17 22.15Q93.38 22.15 92.69 21.88Q92 21.60 91.57 20.94Q91.15 20.27 91.15 19.05L91.15 19.05L91.47 19.30Q91.22 20.20 90.59 20.88Q89.95 21.55 88.94 21.93Q87.92 22.30 86.60 22.30ZM87.50 19.73L87.50 19.73Q88.42 19.73 89.13 19.36Q89.82 19 90.22 18.30Q90.63 17.60 90.63 16.65L90.63 16.65L90.63 16L87.57 16.65Q86.67 16.82 86.21 17.24Q85.75 17.65 85.75 18.30L85.75 18.30Q85.75 18.98 86.20 19.35Q86.65 19.73 87.50 19.73ZM104.80 22L101.55 22Q99.47 22 98.50 21.04Q97.52 20.07 97.52 17.98L97.52 17.98L97.52 5.45L101.27 5.45L101.27 17.52Q101.27 18.50 101.69 18.85Q102.10 19.20 102.92 19.20L102.92 19.20L104.80 19.20L104.80 22ZM104.80 11.40L95.38 11.40L95.38 8.60L104.80 8.60L104.80 11.40ZM110 22L106.25 22L106.25 4.25L110 4.25L110 11.72L109.50 11.72Q109.70 10.55 110.29 9.80Q110.88 9.05 111.76 8.67Q112.65 8.30 113.70 8.30L113.70 8.30Q115.20 8.30 116.20 8.95Q117.20 9.60 117.71 10.75Q118.22 11.90 118.22 13.38L118.22 13.38L118.22 22L114.47 22L114.47 14.27Q114.47 12.78 114.01 12.02Q113.55 11.27 112.45 11.27L112.45 11.27Q111.30 11.27 110.65 12.05Q110 12.82 110 14.38L110 14.38L110 22Z"/></g>
        
      </svg>
    