
      <svg data-logo="logo" xmlns="http://www.w3.org/2000/svg" viewBox="0 0 178 43">
        <g id="logogram" transform="translate(0, 1) rotate(0) "><path d="M13.0832 0.429993L23.4173 9.25886C24.0309 9.78301 24.3845 10.5522 24.3845 11.3623V18.0162L14.0503 9.18733C13.4368 8.66319 13.0832 7.894 13.0832 7.08386V0.429993Z" fill="#71717A"/><path d="M13.0832 40.43L23.4173 31.6011C24.0309 31.077 24.3845 30.3078 24.3845 29.4977V22.8438L14.0503 31.6727C13.4368 32.1968 13.0832 32.966 13.0832 33.7761V40.43Z" fill="#71717A"/><path d="M0.754395 9.74034L10.948 18.4005C11.4422 18.8204 12.0681 19.0507 12.7147 19.0507H20.9354L10.7669 10.3925C10.2723 9.9714 9.64557 9.74034 8.99786 9.74034H0.754395Z" fill="#71717A"/><path d="M0.754395 31.1196L10.8853 22.4645C11.3804 22.0415 12.0086 21.8093 12.6578 21.8093H20.9599L10.7663 30.4694C10.2721 30.8893 9.64625 31.1196 8.99957 31.1196H0.754395Z" fill="#71717A"/><path d="M38.4256 0.429993L28.0914 9.25886C27.4779 9.78301 27.1243 10.5522 27.1243 11.3623V18.0162L37.4584 9.18733C38.072 8.66319 38.4256 7.894 38.4256 7.08386V0.429993Z" fill="#71717A"/><path d="M38.4256 40.43L28.0914 31.6011C27.4779 31.077 27.1243 30.3078 27.1243 29.4977V22.8438L37.4584 31.6727C38.072 32.1968 38.4256 32.966 38.4256 33.7761V40.43Z" fill="#71717A"/><path d="M50.7544 9.74034L40.5608 18.4005C40.0666 18.8204 39.4407 19.0507 38.7941 19.0507H30.5733L40.7419 10.3925C41.2364 9.9714 41.8632 9.74034 42.5109 9.74034H50.7544Z" fill="#71717A"/><path d="M50.7544 31.1196L40.6235 22.4645C40.1284 22.0415 39.5002 21.8093 38.851 21.8093H30.5489L40.7425 30.4694C41.2367 30.8893 41.8625 31.1196 42.5092 31.1196H50.7544Z" fill="#71717A"/></g>
        <g id="logotype" transform="translate(57, 5)"><path fill="#71717A" d="M7.10 6.63L22.25 6.63L22.85 9.57Q22.18 9.22 21.44 9.01Q20.70 8.80 19.75 8.71Q18.80 8.63 17.43 8.63L17.43 8.63L15.93 8.63L15.93 20.45Q15.93 21.85 15.99 23.25Q16.05 24.65 16.38 26L16.38 26L12.98 26Q13.30 24.65 13.36 23.25Q13.43 21.85 13.43 20.45L13.43 20.45L13.43 8.63L11.93 8.63Q10.57 8.63 9.61 8.71Q8.65 8.80 7.91 9.01Q7.17 9.22 6.50 9.57L6.50 9.57L7.10 6.63ZM39.33 12.25L42.35 12.25Q41.95 12.85 41.58 13.52Q41.20 14.20 40.83 15.09Q40.45 15.97 40 17.25L40 17.25L36.90 26L34.65 26L31.38 16.75L28.10 26L25.85 26L22.75 17.25Q22.30 15.97 21.94 15.09Q21.58 14.20 21.24 13.52Q20.90 12.85 20.48 12.25L20.48 12.25L23.70 12.25Q23.80 12.85 23.95 13.50Q24.10 14.15 24.35 14.99Q24.60 15.82 25 17.05L25 17.05L27.08 23.18L29.13 17.05Q29.75 15.22 30.05 14.19Q30.35 13.15 30.53 12.25L30.53 12.25L32.50 12.25Q32.60 12.85 32.75 13.50Q32.90 14.15 33.15 14.99Q33.40 15.82 33.80 17.05L33.80 17.05L35.88 23.18L37.92 17.05Q38.55 15.22 38.85 14.19Q39.15 13.15 39.33 12.25L39.33 12.25ZM49.35 26.35L49.35 26.35Q47.95 26.35 46.71 25.80Q45.48 25.25 44.51 24.27Q43.55 23.30 43.01 21.99Q42.48 20.68 42.48 19.15L42.48 19.15Q42.48 17.63 43.01 16.30Q43.55 14.97 44.50 13.99Q45.45 13 46.69 12.45Q47.93 11.90 49.33 11.90L49.33 11.90Q51.20 11.90 52.48 12.86Q53.75 13.82 54.41 15.46Q55.08 17.10 55.08 19.15L55.08 19.15L44.93 19.15Q44.93 20.57 45.59 21.76Q46.25 22.95 47.39 23.65Q48.53 24.35 49.93 24.35L49.93 24.35Q51.33 24.35 52.24 23.85Q53.15 23.35 53.70 22.52L53.70 22.52L54.60 23.30Q54.33 23.85 53.71 24.56Q53.10 25.27 52.04 25.81Q50.98 26.35 49.35 26.35ZM45.13 17.27L45.13 17.27L52.48 17.27Q52.20 15.72 51.38 14.81Q50.55 13.90 49.08 13.90L49.08 13.90Q47.48 13.90 46.48 14.81Q45.48 15.72 45.13 17.27ZM56.45 22.05L56.45 22.05Q56.45 20.30 57.46 19.16Q58.48 18.02 60.33 17.57Q62.18 17.13 64.70 17.45L64.70 17.45Q64.55 15.60 63.88 14.76Q63.20 13.92 61.88 13.92L61.88 13.92Q60.70 13.92 59.60 14.49Q58.50 15.05 57.70 15.97L57.70 15.97L57.53 15.97L57.45 13.38Q59.48 11.92 62.23 11.92L62.23 11.92Q64.78 11.92 65.93 13.46Q67.08 15 67.10 18.43L67.10 18.43L67.10 20.50Q67.10 21.73 67.19 22.57Q67.28 23.43 67.49 24.06Q67.70 24.70 68.05 25.32L68.05 25.32L68.05 25.48L64.70 26.18L64.70 24.07L64.60 24.07Q64.13 25.18 63.18 25.76Q62.23 26.35 60.98 26.35L60.98 26.35Q59.70 26.35 58.68 25.79Q57.65 25.23 57.05 24.25Q56.45 23.27 56.45 22.05ZM58.90 22.05L58.90 22.05Q58.90 23.15 59.58 23.75Q60.25 24.35 61.48 24.35L61.48 24.35Q62.35 24.35 63.06 23.96Q63.78 23.57 64.23 22.91Q64.67 22.25 64.73 21.45L64.73 21.45L64.73 19.02Q62.08 18.73 60.49 19.51Q58.90 20.30 58.90 22.05ZM75.85 18.55L79.78 22.70Q80.58 23.57 81.39 24.35Q82.20 25.13 83.25 26L83.25 26L79.78 26Q79.73 25.85 79.35 25.35Q78.98 24.85 78.40 24.23L78.40 24.23L73.13 18.60L73.13 20.45Q73.13 21.85 73.19 23.25Q73.25 24.65 73.58 26L73.58 26L70.30 26Q70.63 24.65 70.69 23.25Q70.75 21.85 70.75 20.45L70.75 20.45L70.75 12.17Q70.75 10.82 70.65 9.96Q70.55 9.10 70.35 8.50Q70.15 7.90 69.80 7.35L69.80 7.35L69.80 7.20L73.13 6.50L73.13 18.52L77.08 14.30Q77.75 13.52 78.19 12.97Q78.63 12.42 78.70 12.25L78.70 12.25L82.18 12.25Q81.38 12.92 80.71 13.52Q80.05 14.13 79.43 14.75L79.43 14.75L75.85 18.55ZM88.73 26.35L88.73 26.35Q85.20 26.35 85.20 21.85L85.20 21.85L85.20 13.97Q85.20 13.97 84.85 14.01Q84.50 14.05 84.03 14.11Q83.55 14.17 83.13 14.25L83.13 14.25L83.13 13.97L87.33 9.35L87.58 9.35L87.58 12.25L91.10 12.25L91.35 14.25Q90.85 14.15 90.36 14.10Q89.88 14.05 89.23 14.01Q88.58 13.97 87.58 13.97L87.58 13.97L87.58 21.75Q87.58 23.15 87.96 23.70Q88.35 24.25 89.33 24.25L89.33 24.25Q89.95 24.25 90.35 24Q90.75 23.75 91.08 23.27L91.08 23.27L91.78 24.23Q91.40 25.15 90.65 25.75Q89.90 26.35 88.73 26.35ZM93.03 22.05L93.03 22.05Q93.03 20.30 94.04 19.16Q95.05 18.02 96.90 17.57Q98.75 17.13 101.28 17.45L101.28 17.45Q101.13 15.60 100.45 14.76Q99.78 13.92 98.45 13.92L98.45 13.92Q97.28 13.92 96.18 14.49Q95.08 15.05 94.28 15.97L94.28 15.97L94.10 15.97L94.03 13.38Q96.05 11.92 98.80 11.92L98.80 11.92Q101.35 11.92 102.50 13.46Q103.65 15 103.68 18.43L103.68 18.43L103.68 20.50Q103.68 21.73 103.76 22.57Q103.85 23.43 104.06 24.06Q104.28 24.70 104.63 25.32L104.63 25.32L104.63 25.48L101.28 26.18L101.28 24.07L101.18 24.07Q100.70 25.18 99.75 25.76Q98.80 26.35 97.55 26.35L97.55 26.35Q96.28 26.35 95.25 25.79Q94.23 25.23 93.63 24.25Q93.03 23.27 93.03 22.05ZM95.48 22.05L95.48 22.05Q95.48 23.15 96.15 23.75Q96.83 24.35 98.05 24.35L98.05 24.35Q98.93 24.35 99.64 23.96Q100.35 23.57 100.80 22.91Q101.25 22.25 101.30 21.45L101.30 21.45L101.30 19.02Q98.65 18.73 97.06 19.51Q95.48 20.30 95.48 22.05ZM113.78 26.35L113.78 26.35Q112.73 26.35 111.96 26.05Q111.20 25.75 110.70 25.31Q110.20 24.88 109.91 24.45Q109.63 24.02 109.50 23.77L109.50 23.77L109.45 23.77L109.45 26.95Q109.45 28.35 109.51 29.75Q109.58 31.15 109.90 32.50L109.90 32.50L106.63 32.50Q106.95 31.15 107.01 29.75Q107.08 28.35 107.08 26.95L107.08 26.95L107.08 17.73Q107.08 16.38 106.98 15.51Q106.88 14.65 106.68 14.05Q106.48 13.45 106.13 12.90L106.13 12.90L106.13 12.75L109.45 12.05L109.43 14.10L109.60 14.10Q110.90 11.90 113.60 11.90L113.60 11.90Q115.43 11.90 116.85 12.84Q118.28 13.77 119.10 15.41Q119.93 17.05 119.93 19.15L119.93 19.15Q119.93 21.23 119.13 22.85Q118.33 24.48 116.94 25.41Q115.55 26.35 113.78 26.35ZM109.45 18.63L109.45 20.30Q109.45 22.13 110.48 23.24Q111.50 24.35 113.25 24.35L113.25 24.35Q115.20 24.35 116.34 22.95Q117.48 21.55 117.48 19.15L117.48 19.15Q117.48 16.75 116.41 15.32Q115.35 13.90 113.58 13.90L113.58 13.90Q112.25 13.90 111.35 14.60Q110.45 15.30 109.99 16.38Q109.53 17.45 109.45 18.63L109.45 18.63Z"/></g>
        
      </svg>
    