
      <svg data-logo="logo" xmlns="http://www.w3.org/2000/svg" viewBox="0 0 201 42">
        <g id="logogram" transform="translate(0, 1) rotate(0) "><path d="M16.6584 40H15.3817C12.0653 40 10.07 39.9994 8.54581 39.7159L17.3668 28.0344L16.6584 40Z" fill="#71717A"/><path d="M31.2482 39.7514C29.7502 39.9988 27.7875 40 24.6183 40H23.109L22.397 28.0309L31.2482 39.7514Z" fill="#71717A"/><path d="M39.6715 31.6708C39.6071 31.9773 39.5313 32.2655 39.4389 32.5426C38.8337 34.3567 37.7712 35.9522 36.3867 37.1982L26.44 26.044L39.6715 31.6708Z" fill="#71717A"/><path d="M3.48544 37.0792C2.16397 35.8511 1.14739 34.3 0.56108 32.5426C0.459551 32.2382 0.375253 31.921 0.307173 31.5803L13.3239 26.0458L3.48544 37.0792Z" fill="#71717A"/><path d="M40 24.6183C40 25.7428 39.9968 26.7154 39.9858 27.5692L28.1729 23.006H40V24.6183Z" fill="#71717A"/><path d="M11.5962 23.006L0.0106534 27.4805C0.000706106 26.6481 0 25.704 0 24.6183V23.006H11.5962Z" fill="#71717A"/><path d="M24.6183 0C28.7807 0 30.862 0.000553673 32.5426 0.56108C35.7979 1.64713 38.3529 4.20208 39.4389 7.45739C39.9994 9.13798 40 11.2193 40 15.3817V20.016H27.5089L36.5181 16.1861L33.8459 14.4123L25.1048 17.7876L29.2081 12.358L26.2571 11.5501L21.7259 16.6282L21.3885 10.9091H18.3825L18.0398 16.6282L13.5121 11.5501L10.5629 12.358L14.6609 17.7859L5.92507 14.4123L3.25284 16.1861L12.2603 20.016H0V15.3817C0 11.2193 0.000553673 9.13798 0.56108 7.45739C1.64713 4.20208 4.20208 1.64713 7.45739 0.56108C9.13798 0.000553673 11.2193 0 15.3817 0H24.6183Z" fill="#71717A"/></g>
        <g id="logotype" transform="translate(46, 12)"><path fill="#71717A" d="M11.78 18L7.28 18L7.28 0.25L15 0.25Q16.90 0.25 18.34 0.89Q19.77 1.52 20.58 2.80Q21.38 4.07 21.38 6.05L21.38 6.05Q21.38 8.05 20.58 9.36Q19.77 10.68 18.34 11.31Q16.90 11.95 15 11.95L15 11.95L10.98 11.95L10.98 8.67L14.35 8.67Q15.80 8.67 16.35 7.99Q16.90 7.30 16.90 6.22L16.90 6.22L16.90 5.95Q16.90 4.92 16.33 4.24Q15.75 3.55 14.35 3.55L14.35 3.55L10.93 3.55L11.78 3L11.78 18ZM27.30 18L22.85 18L22.85 5.15L27.23 5.15L27.23 9.03L27.30 9.03L27.30 18ZM27.30 11.32L27.30 11.32L26.50 9.88Q26.52 8.10 27.16 6.99Q27.80 5.88 28.77 5.36Q29.75 4.85 30.70 4.85L30.70 4.85Q30.93 4.85 31.16 4.88Q31.40 4.90 31.70 4.97L31.70 4.97L31.70 9.03Q31.15 8.95 30.55 8.92Q29.95 8.90 29.38 8.99Q28.80 9.07 28.32 9.32Q27.85 9.57 27.57 10.06Q27.30 10.55 27.30 11.32ZM37.60 18L33.15 18L33.15 5.15L37.60 5.15L37.60 18ZM37.60 3.75L33.15 3.75L33.15 0.25L37.60 0.25L37.60 3.75ZM51.47 18L47.02 18L47.02 10.13Q47.02 9.07 46.64 8.65Q46.25 8.22 45.75 8.22L45.75 8.22Q45.35 8.22 45 8.42Q44.65 8.63 44.45 9.06Q44.25 9.50 44.25 10.18L44.25 10.18L43.30 9.13Q43.65 7.52 44.34 6.60Q45.02 5.67 45.92 5.26Q46.82 4.85 47.77 4.85L47.77 4.85Q48.63 4.85 49.35 5.16Q50.07 5.47 50.60 6.16Q51.13 6.85 51.32 7.95L51.32 7.95L50.55 7.92Q50.97 6.77 51.66 6.10Q52.35 5.42 53.17 5.14Q54 4.85 54.82 4.85L54.82 4.85Q55.60 4.85 56.30 5.10Q57 5.35 57.54 5.90Q58.07 6.45 58.39 7.31Q58.70 8.17 58.70 9.40L58.70 9.40L58.70 18L54.25 18L54.25 10.13Q54.25 9.07 53.86 8.65Q53.47 8.22 52.97 8.22L52.97 8.22Q52.57 8.22 52.22 8.42Q51.88 8.63 51.67 9.06Q51.47 9.50 51.47 10.18L51.47 10.18L51.47 18ZM44.25 18L39.80 18L39.80 5.15L44.17 5.15L44.17 8.17L44.25 8.17L44.25 18ZM66.72 18.30L66.72 18.30Q64.72 18.30 63.29 17.45Q61.85 16.60 61.09 15.09Q60.32 13.57 60.32 11.57L60.32 11.57Q60.32 9.60 61.10 8.09Q61.87 6.57 63.34 5.71Q64.80 4.85 66.80 4.85L66.80 4.85Q68.47 4.85 69.66 5.47Q70.85 6.10 71.54 7.17Q72.22 8.25 72.44 9.61Q72.65 10.97 72.40 12.45L72.40 12.45L63.92 12.45L63.92 10.15L69.35 10.15L68.65 10.90L68.65 10.50Q68.65 9.60 68.45 9Q68.25 8.40 67.84 8.10Q67.42 7.80 66.77 7.80L66.77 7.80Q65.82 7.80 65.21 8.49Q64.60 9.17 64.60 10.57L64.60 10.57L64.60 12.22Q64.60 13.77 65.17 14.56Q65.75 15.35 66.70 15.35L66.70 15.35Q67.22 15.35 67.61 15.18Q68 15 68.27 14.61Q68.55 14.22 68.72 13.60L68.72 13.60L72.40 14.20Q72.20 15.35 71.51 16.29Q70.82 17.23 69.64 17.76Q68.45 18.30 66.72 18.30ZM87.05 18L81.85 18L78.28 0.25L82.67 0.25L84.67 12.65L84.58 12.65L87.38 0.25L92 0.25L94.80 12.65L94.70 12.65L96.70 0.25L101.13 0.25L97.55 18L92.35 18L89.67 5.80L89.72 5.80L87.05 18ZM114.03 18L109.90 18L109.58 15.30L109.43 15.30L109.43 9.40Q109.43 8.75 109.05 8.36Q108.68 7.97 107.93 7.97L107.93 7.97Q107.23 7.97 106.85 8.36Q106.48 8.75 106.30 9.55L106.30 9.55L102.33 8.97Q102.48 7.80 103.15 6.88Q103.83 5.95 105.04 5.40Q106.25 4.85 108 4.85L108 4.85Q111.08 4.85 112.48 6.25Q113.88 7.65 113.88 10.10L113.88 10.10L113.88 14.13Q113.88 14.65 113.89 15.20Q113.90 15.75 113.93 16.41Q113.95 17.07 114.03 18L114.03 18ZM106.20 18.25L106.20 18.25Q104.95 18.25 104.01 17.79Q103.08 17.32 102.58 16.49Q102.08 15.65 102.08 14.53L102.08 14.53Q102.08 13.35 102.64 12.57Q103.20 11.80 104.29 11.29Q105.38 10.77 106.93 10.43L106.93 10.43L109.80 9.78L109.80 12.20L108.18 12.70Q107.40 12.95 106.99 13.30Q106.58 13.65 106.58 14.22L106.58 14.22Q106.58 14.75 106.91 15.05Q107.25 15.35 107.88 15.35L107.88 15.35Q108.25 15.35 108.60 15.19Q108.95 15.03 109.19 14.70Q109.43 14.38 109.43 13.90L109.43 13.90L110.48 15.60Q110.13 16.52 109.49 17.11Q108.85 17.70 108.01 17.98Q107.18 18.25 106.20 18.25ZM124.15 18L119.28 18L114.92 5.15L119.60 5.15L121.97 14.20L121.63 14.20L124 5.15L128.50 5.15L124.15 18ZM135.58 18.30L135.58 18.30Q133.58 18.30 132.14 17.45Q130.70 16.60 129.94 15.09Q129.18 13.57 129.18 11.57L129.18 11.57Q129.18 9.60 129.95 8.09Q130.73 6.57 132.19 5.71Q133.65 4.85 135.65 4.85L135.65 4.85Q137.33 4.85 138.51 5.47Q139.70 6.10 140.39 7.17Q141.08 8.25 141.29 9.61Q141.50 10.97 141.25 12.45L141.25 12.45L132.78 12.45L132.78 10.15L138.20 10.15L137.50 10.90L137.50 10.50Q137.50 9.60 137.30 9Q137.10 8.40 136.69 8.10Q136.28 7.80 135.63 7.80L135.63 7.80Q134.68 7.80 134.06 8.49Q133.45 9.17 133.45 10.57L133.45 10.57L133.45 12.22Q133.45 13.77 134.03 14.56Q134.60 15.35 135.55 15.35L135.55 15.35Q136.08 15.35 136.46 15.18Q136.85 15 137.13 14.61Q137.40 14.22 137.58 13.60L137.58 13.60L141.25 14.20Q141.05 15.35 140.36 16.29Q139.68 17.23 138.49 17.76Q137.30 18.30 135.58 18.30ZM148.30 18.30L148.30 18.30Q146.35 18.30 145.09 17.71Q143.83 17.13 143.20 16.19Q142.58 15.25 142.53 14.20L142.53 14.20L146.68 13.95Q146.75 14.35 146.94 14.71Q147.13 15.07 147.46 15.30Q147.80 15.53 148.33 15.53L148.33 15.53Q149.03 15.53 149.36 15.29Q149.70 15.05 149.70 14.53L149.70 14.53Q149.70 13.95 149.30 13.70Q148.90 13.45 148.15 13.27L148.15 13.27L146.63 12.90Q145.40 12.60 144.55 12.09Q143.70 11.57 143.26 10.81Q142.83 10.05 142.83 9.05L142.83 9.05Q142.83 7.52 143.55 6.60Q144.28 5.67 145.53 5.26Q146.78 4.85 148.35 4.85L148.35 4.85Q150.08 4.85 151.18 5.41Q152.28 5.97 152.85 6.88Q153.43 7.77 153.53 8.82L153.53 8.82L149.68 9.07Q149.58 8.42 149.26 8.02Q148.95 7.63 148.20 7.63L148.20 7.63Q147.58 7.63 147.26 7.85Q146.95 8.07 146.95 8.50L146.95 8.50Q146.95 8.97 147.30 9.25Q147.65 9.53 148.33 9.70L148.33 9.70L150.10 10.15Q151.25 10.43 152.09 10.91Q152.93 11.40 153.39 12.14Q153.85 12.88 153.85 13.95L153.85 13.95Q153.85 15.38 153.14 16.35Q152.43 17.32 151.18 17.81Q149.93 18.30 148.30 18.30Z"/></g>
        
      </svg>
    