<svg viewBox="0 0 118 43" xmlns="http://www.w3.org/2000/svg" data-logo="logo">
        <g transform="translate(0, 1) rotate(0)" id="logogram" style="opacity: 1;"><path fill="#71717A" d="M29.4554 2.85574V0.429993H35V22.7815C35 32.4465 27.165 40.2815 17.5 40.2815C8.24271 40.2815 0.664262 33.0935 0.0413736 23.9944H0V0.429993H5.54455V2.85574H14.901V0.429993H20.4455V2.85574H29.4554ZM29.4554 22.7815V19.3796C28.8318 20.0226 28.1633 20.6332 27.4539 21.2083C25.1121 23.107 22.3612 24.5903 19.369 25.5951C16.3764 26.6001 13.1833 27.1132 9.96797 27.1132H6.35343C8.08848 31.5747 12.425 34.7369 17.5 34.7369C24.1028 34.7369 29.4554 29.3843 29.4554 22.7815ZM15.4269 18.6058C14.3706 19.7255 13.18 20.6964 11.8852 21.494C13.8545 21.3403 15.7827 20.9507 17.6038 20.3391C20.013 19.53 22.1698 18.3545 23.9621 16.9015C25.7535 15.449 27.136 13.7561 28.0645 11.9386C28.6507 10.7912 29.0518 9.60308 29.2674 8.40029H20.2671C20.0641 9.87448 19.6891 11.3213 19.1475 12.7073C18.2893 14.9035 17.0275 16.9091 15.4269 18.6058ZM5.54455 18.1784V8.40029H14.6483C14.4948 9.18283 14.2724 9.94933 13.9832 10.6893C13.3786 12.2366 12.4962 13.6325 11.3938 14.801C10.2918 15.9692 8.99228 16.8866 7.57404 17.5093C6.91535 17.7985 6.23601 18.022 5.54455 18.1784Z" clip-rule="evenodd" fill-rule="evenodd"></path></g>
        <g transform="translate(41, 13.5)" id="logotype" style="opacity: 1;"><path d="M9.55 16L6.75 16L6.75-0.23L14.65-0.23L14.65 2.40L9.55 2.40L9.55 6.17L13.15 6.17L13.15 8.82L9.55 8.82L9.55 16ZM18.77 16L15.95 16L15.95-0.18L18.77-0.18L18.77 16ZM27.15 16L20.28 16L20.28-0.23L23.10-0.23L23.10 13.35L27.15 13.35L27.15 16ZM32.38 16L32.38 16Q29.95 16 28.99 15.04Q28.03 14.07 28.03 11.88L28.03 11.88L28.03 3.90Q28.03 1.67 28.99 0.72Q29.95-0.23 32.38-0.23L32.38-0.23Q34.78-0.23 35.76 0.71Q36.75 1.65 36.75 3.90L36.75 3.90L36.75 11.07Q36.75 12.28 36.63 13.20Q36.50 14.13 36.06 14.75Q35.63 15.38 34.75 15.69Q33.88 16 32.38 16ZM32.43 13.30L32.43 13.30Q33.53 13.30 33.74 12.76Q33.95 12.22 33.95 11.07L33.95 11.07L33.95 3.90Q33.95 3.17 33.86 2.86Q33.78 2.55 33.45 2.49Q33.13 2.42 32.38 2.42L32.38 2.42Q31.63 2.42 31.29 2.54Q30.95 2.65 30.86 2.96Q30.78 3.27 30.78 3.90L30.78 3.90L30.83 11.20Q30.83 12.05 30.93 12.50Q31.03 12.95 31.38 13.13Q31.73 13.30 32.43 13.30ZM45.90 16L38 16L38 13.32L42.85 2.40L38 2.40L38-0.23L45.90-0.23L45.88 2.45L41.08 13.35L45.90 13.35L45.90 16ZM52.78 16L49.98 16L49.98 9.30Q48.60 8.13 47.98 6.95Q47.35 5.77 47.19 4.49Q47.02 3.20 47.02 1.67L47.02 1.67L47.02-0.23L49.80-0.23L49.80 0.45L49.77 1.13L49.77 1.65L49.75 2.17Q49.75 3.40 50.05 4.60Q50.35 5.80 51.35 6.90L51.35 6.90Q52.43 5.77 52.73 4.56Q53.03 3.35 53.03 2L53.03 2L53.03 1.50L53 1L53 0.38L52.98-0.23L55.78-0.23L55.78 1.67Q55.78 3.20 55.59 4.49Q55.40 5.77 54.76 6.94Q54.13 8.10 52.78 9.30L52.78 9.30L52.78 16ZM59.80 16L57.03 16L57.03-0.23L59.78-0.23L63.80 8.97L63.80-0.23L66.63-0.23L66.63 16L63.83 16L59.80 6.80L59.80 16ZM76.08 16L68.17 16L68.17-0.23L76.08-0.23L76.08 2.40L70.98 2.40L70.98 6.17L74.58 6.17L74.58 8.82L70.98 8.82L70.98 13.35L76.08 13.35L76.08 16Z" fill="#71717A"></path></g>
        
      </svg>